<?xml version="1.0" encoding="UTF-8"?>
<svg xmlns="http://www.w3.org/2000/svg" xmlns:xlink="http://www.w3.org/1999/xlink" width="78px" height="32px" viewBox="0 0 77 32" version="1.1">
<g id="surface1">
<path style=" stroke:none;fill-rule:evenodd;fill:rgb(99.215686%,99.215686%,98.823529%);fill-opacity:1;" d="M -0.121094 -0.121094 C 25.546875 -0.121094 51.214844 -0.121094 76.878906 -0.121094 C 76.878906 10.546875 76.878906 21.210938 76.878906 31.878906 C 51.214844 31.878906 25.546875 31.878906 -0.121094 31.878906 C -0.121094 21.210938 -0.121094 10.546875 -0.121094 -0.121094 Z M -0.121094 -0.121094 "/>
<path style=" stroke:none;fill-rule:evenodd;fill:rgb(3.529412%,4.313726%,4.705882%);fill-opacity:1;" d="M 7.339844 4.484375 C 10.535156 4.132812 12.738281 5.425781 13.957031 8.363281 C 14.078125 11.59375 14.117188 14.828125 14.078125 18.0625 C 13.355469 18.0625 12.632812 18.0625 11.910156 18.0625 C 11.949219 15.230469 11.910156 12.402344 11.789062 9.574219 C 10.824219 6.988281 9.101562 6.300781 6.617188 7.515625 C 6.226562 8.019531 5.867188 8.542969 5.535156 9.089844 C 5.414062 12.078125 5.375 15.070312 5.414062 18.0625 C 4.613281 18.0625 3.808594 18.0625 3.007812 18.0625 C 2.96875 14.90625 3.007812 11.757812 3.128906 8.605469 C 3.875 6.519531 5.28125 5.144531 7.339844 4.484375 Z M 7.339844 4.484375 "/>
<path style=" stroke:none;fill-rule:evenodd;fill:rgb(3.137255%,4.313726%,4.705882%);fill-opacity:1;" d="M 16.964844 4.484375 C 17.671875 4.417969 18.355469 4.5 19.007812 4.726562 C 19.128906 9.171875 19.167969 13.617188 19.128906 18.0625 C 18.328125 18.0625 17.527344 18.0625 16.722656 18.0625 C 16.648438 13.515625 16.726562 8.992188 16.964844 4.484375 Z M 16.964844 4.484375 "/>
<path style=" stroke:none;fill-rule:evenodd;fill:rgb(5.098039%,5.882353%,5.882353%);fill-opacity:1;" d="M 21.535156 4.484375 C 22.402344 4.414062 23.246094 4.496094 24.0625 4.726562 C 25.242188 7.988281 26.484375 11.222656 27.792969 14.425781 C 29.058594 11.203125 30.300781 7.972656 31.523438 4.726562 C 32.339844 4.496094 33.179688 4.414062 34.046875 4.484375 C 32.605469 8.804688 31.042969 13.089844 29.355469 17.332031 C 28.027344 18.433594 26.902344 18.273438 25.988281 16.847656 C 24.429688 12.746094 22.945312 8.625 21.535156 4.484375 Z M 21.535156 4.484375 "/>
<path style=" stroke:none;fill-rule:evenodd;fill:rgb(5.098039%,5.882353%,6.27451%);fill-opacity:1;" d="M 40.304688 4.484375 C 43.6875 4.167969 46.171875 5.5 47.765625 8.484375 C 45.691406 9.886719 43.523438 11.136719 41.265625 12.242188 C 40.601562 11.867188 40.320312 11.300781 40.425781 10.546875 C 41.730469 9.746094 43.050781 8.980469 44.394531 8.242188 C 44.6875 8.027344 44.6875 7.824219 44.394531 7.636719 C 41.300781 5.886719 38.933594 6.613281 37.296875 9.816406 C 36.773438 13.828125 38.5 15.808594 42.46875 15.757812 C 44.546875 15.28125 45.832031 13.988281 46.320312 11.878906 C 47.988281 11.535156 48.507812 12.140625 47.882812 13.695312 C 45.773438 17.746094 42.605469 18.917969 38.378906 17.210938 C 34.964844 14.8125 34.121094 11.703125 35.851562 7.878906 C 36.941406 6.183594 38.425781 5.050781 40.304688 4.484375 Z M 40.304688 4.484375 "/>
<path style=" stroke:none;fill-rule:evenodd;fill:rgb(92.54902%,30.19608%,23.921569%);fill-opacity:1;" d="M 50.652344 4.484375 C 52.195312 4.558594 52.675781 5.328125 52.09375 6.789062 C 50.511719 7.457031 49.832031 6.929688 50.050781 5.210938 C 50.300781 5 50.5 4.757812 50.652344 4.484375 Z M 50.652344 4.484375 "/>
<path style=" stroke:none;fill-rule:evenodd;fill:rgb(92.54902%,30.19608%,23.921569%);fill-opacity:1;" d="M 59.554688 4.484375 C 61.183594 4.496094 61.664062 5.265625 61 6.789062 C 59.414062 7.457031 58.734375 6.929688 58.953125 5.210938 C 59.203125 5 59.40625 4.757812 59.554688 4.484375 Z M 59.554688 4.484375 "/>
<path style=" stroke:none;fill-rule:evenodd;fill:rgb(5.490196%,6.27451%,6.27451%);fill-opacity:1;" d="M 65.570312 4.484375 C 68.035156 4.40625 70.484375 4.488281 72.910156 4.726562 C 73.097656 5.4375 73.054688 6.125 72.789062 6.789062 C 70.464844 6.867188 68.136719 6.949219 65.8125 7.03125 C 65.167969 7.675781 65.167969 8.324219 65.8125 8.96875 C 67.636719 9.664062 69.480469 10.308594 71.34375 10.910156 C 73.285156 11.789062 74.046875 13.285156 73.632812 15.394531 C 73.222656 16.9375 72.21875 17.785156 70.625 17.9375 C 68 18.136719 65.390625 18.097656 62.804688 17.816406 C 62.617188 17.109375 62.65625 16.421875 62.921875 15.757812 C 65.488281 15.675781 68.058594 15.597656 70.625 15.515625 C 71.148438 14.929688 71.226562 14.28125 70.863281 13.574219 C 69.316406 12.863281 67.710938 12.296875 66.050781 11.878906 C 63.617188 11.210938 62.535156 9.632812 62.804688 7.152344 C 63.382812 5.878906 64.304688 4.992188 65.570312 4.484375 Z M 65.570312 4.484375 "/>
<path style=" stroke:none;fill-rule:evenodd;fill:rgb(97.254902%,71.372551%,17.647059%);fill-opacity:1;" d="M 49.929688 9.574219 C 50.71875 9.507812 51.480469 9.585938 52.214844 9.816406 C 51.890625 11.980469 52.492188 13.800781 54.019531 15.273438 C 55.886719 16.0625 57.371094 15.617188 58.472656 13.9375 C 58.742188 12.582031 58.902344 11.207031 58.953125 9.816406 C 59.691406 9.546875 60.453125 9.507812 61.238281 9.695312 C 61.703125 11.773438 61.421875 13.75 60.398438 15.636719 C 58.3125 18.085938 55.785156 18.691406 52.816406 17.453125 C 50.152344 15.511719 49.191406 12.882812 49.929688 9.574219 Z M 49.929688 9.574219 "/>
<path style=" stroke:none;fill-rule:evenodd;fill:rgb(23.921569%,22.352941%,22.745098%);fill-opacity:1;" d="M 30.679688 22.425781 C 31.1875 22.351562 31.667969 22.433594 32.125 22.667969 C 31.332031 22.714844 30.933594 23.117188 30.921875 23.878906 C 31.882812 24.039062 31.882812 24.203125 30.921875 24.363281 C 30.921875 25.414062 30.921875 26.464844 30.921875 27.515625 C 30.679688 27.515625 30.4375 27.515625 30.199219 27.515625 C 30.324219 26.324219 30.164062 25.191406 29.71875 24.121094 C 30.128906 23.605469 30.449219 23.039062 30.679688 22.425781 Z M 30.679688 22.425781 "/>
<path style=" stroke:none;fill-rule:evenodd;fill:rgb(16.078432%,14.509805%,14.901961%);fill-opacity:1;" d="M 12.152344 22.667969 C 13.195312 22.507812 14.117188 22.75 14.917969 23.394531 C 15.167969 25.117188 14.40625 25.84375 12.632812 25.574219 C 12.707031 26.164062 12.625 26.730469 12.390625 27.273438 C 12.152344 25.746094 12.070312 24.210938 12.152344 22.667969 Z M 12.152344 22.667969 "/>
<path style=" stroke:none;fill-rule:evenodd;fill:rgb(17.254902%,15.686275%,16.078432%);fill-opacity:1;" d="M 34.046875 22.667969 C 34.554688 22.59375 35.035156 22.675781 35.492188 22.910156 C 36.09375 23.960938 36.695312 25.011719 37.296875 26.0625 C 37.417969 24.933594 37.457031 23.800781 37.417969 22.667969 C 37.65625 22.667969 37.898438 22.667969 38.140625 22.667969 C 38.140625 24.203125 38.140625 25.738281 38.140625 27.273438 C 37.730469 27.3125 37.328125 27.269531 36.9375 27.152344 C 36.363281 26.203125 35.761719 25.273438 35.132812 24.363281 C 35.011719 25.328125 34.972656 26.300781 35.011719 27.273438 C 34.691406 27.273438 34.371094 27.273438 34.046875 27.273438 C 34.046875 25.738281 34.046875 24.203125 34.046875 22.667969 Z M 34.046875 22.667969 "/>
<path style=" stroke:none;fill-rule:evenodd;fill:rgb(17.254902%,15.686275%,16.078432%);fill-opacity:1;" d="M 38.859375 22.667969 C 39.984375 22.667969 41.105469 22.667969 42.230469 22.667969 C 42.230469 22.988281 42.230469 23.3125 42.230469 23.636719 C 41.828125 23.636719 41.425781 23.636719 41.027344 23.636719 C 41.027344 24.847656 41.027344 26.0625 41.027344 27.273438 C 40.707031 27.273438 40.386719 27.273438 40.0625 27.273438 C 40.0625 26.0625 40.0625 24.847656 40.0625 23.636719 C 39.664062 23.636719 39.261719 23.636719 38.859375 23.636719 C 38.859375 23.3125 38.859375 22.988281 38.859375 22.667969 Z M 38.859375 22.667969 "/>
<path style=" stroke:none;fill-rule:evenodd;fill:rgb(14.901961%,13.333334%,13.725491%);fill-opacity:1;" d="M 46.320312 22.910156 C 46.320312 23.152344 46.320312 23.394531 46.320312 23.636719 C 45.917969 23.636719 45.519531 23.636719 45.117188 23.636719 C 44.878906 24.800781 44.800781 26.011719 44.875 27.273438 C 44.636719 27.273438 44.394531 27.273438 44.15625 27.273438 C 44.15625 26.0625 44.15625 24.847656 44.15625 23.636719 C 43.785156 23.476562 43.382812 23.3125 42.953125 23.152344 C 44.0625 22.910156 45.1875 22.828125 46.320312 22.910156 Z M 46.320312 22.910156 "/>
<path style=" stroke:none;fill-rule:evenodd;fill:rgb(16.470589%,14.901961%,15.294118%);fill-opacity:1;" d="M 48.726562 22.667969 C 52.175781 22.378906 53.21875 23.792969 51.855469 26.910156 C 50.84375 27.242188 49.800781 27.363281 48.726562 27.273438 C 48.726562 25.738281 48.726562 24.203125 48.726562 22.667969 Z M 48.726562 22.667969 "/>
<path style=" stroke:none;fill-rule:evenodd;fill:rgb(16.862746%,15.294118%,15.686275%);fill-opacity:1;" d="M 54.5 22.667969 C 54.933594 22.597656 55.332031 22.679688 55.703125 22.910156 C 56.324219 24.320312 56.808594 25.773438 57.148438 27.273438 C 56.558594 27.339844 56.15625 27.097656 55.945312 26.546875 C 55.324219 26.308594 54.679688 26.226562 54.019531 26.304688 C 54.019531 26.625 54.019531 26.949219 54.019531 27.273438 C 53.699219 27.273438 53.378906 27.273438 53.058594 27.273438 C 53.347656 25.671875 53.828125 24.136719 54.5 22.667969 Z M 54.5 22.667969 "/>
<path style=" stroke:none;fill-rule:evenodd;fill:rgb(18.039216%,16.470589%,16.862746%);fill-opacity:1;" d="M 59.3125 23.636719 C 59.078125 24.800781 58.996094 26.011719 59.074219 27.273438 C 58.832031 27.273438 58.59375 27.273438 58.351562 27.273438 C 58.429688 26.011719 58.347656 24.800781 58.109375 23.636719 C 57.710938 23.636719 57.308594 23.636719 56.90625 23.636719 C 56.90625 23.3125 56.90625 22.988281 56.90625 22.667969 C 58.109375 22.667969 59.3125 22.667969 60.515625 22.667969 C 60.515625 22.988281 60.515625 23.3125 60.515625 23.636719 C 60.117188 23.636719 59.714844 23.636719 59.3125 23.636719 Z M 59.3125 23.636719 "/>
<path style=" stroke:none;fill-rule:evenodd;fill:rgb(16.862746%,15.294118%,15.686275%);fill-opacity:1;" d="M 61.71875 22.667969 C 62.195312 22.609375 62.636719 22.6875 63.042969 22.910156 C 63.65625 24.316406 64.097656 25.769531 64.367188 27.273438 C 64.046875 27.273438 63.726562 27.273438 63.40625 27.273438 C 63.40625 26.949219 63.40625 26.625 63.40625 26.304688 C 62.742188 26.226562 62.101562 26.308594 61.480469 26.546875 C 61.269531 27.097656 60.867188 27.339844 60.277344 27.273438 C 60.660156 25.707031 61.144531 24.167969 61.71875 22.667969 Z M 61.71875 22.667969 "/>
<path style=" stroke:none;fill-rule:evenodd;fill:rgb(18.039216%,16.470589%,16.862746%);fill-opacity:1;" d="M 22.257812 23.152344 C 22.628906 23.230469 22.789062 23.472656 22.738281 23.878906 C 24.023438 24.039062 24.023438 24.203125 22.738281 24.363281 C 22.699219 25.175781 22.738281 25.984375 22.859375 26.789062 C 23.148438 26.925781 23.429688 27.089844 23.703125 27.273438 C 23.195312 27.597656 22.753906 27.519531 22.378906 27.03125 C 22.378906 26 22.179688 25.03125 21.777344 24.121094 C 22.101562 23.871094 22.261719 23.550781 22.257812 23.152344 Z M 22.257812 23.152344 "/>
<path style=" stroke:none;fill-rule:evenodd;fill:rgb(88.235295%,88.235295%,88.235295%);fill-opacity:1;" d="M 12.632812 23.152344 C 13.5625 22.976562 14.203125 23.300781 14.558594 24.121094 C 14.550781 24.492188 14.390625 24.773438 14.078125 24.96875 C 13.601562 25.089844 13.121094 25.128906 12.632812 25.089844 C 12.632812 24.445312 12.632812 23.796875 12.632812 23.152344 Z M 12.632812 23.152344 "/>
<path style=" stroke:none;fill-rule:evenodd;fill:rgb(37.254903%,36.078432%,36.470589%);fill-opacity:1;" d="M 46.320312 22.910156 C 45.1875 22.828125 44.0625 22.910156 42.953125 23.152344 C 43.382812 23.3125 43.785156 23.476562 44.15625 23.636719 C 43.671875 23.636719 43.191406 23.636719 42.710938 23.636719 C 42.710938 23.3125 42.710938 22.988281 42.710938 22.667969 C 43.960938 22.589844 45.164062 22.667969 46.320312 22.910156 Z M 46.320312 22.910156 "/>
<path style=" stroke:none;fill-rule:evenodd;fill:rgb(39.607844%,38.431373%,38.82353%);fill-opacity:1;" d="M 45.117188 23.636719 C 45.117188 24.929688 45.117188 26.222656 45.117188 27.515625 C 44.734375 27.582031 44.410156 27.5 44.15625 27.273438 C 44.394531 27.273438 44.636719 27.273438 44.875 27.273438 C 44.800781 26.011719 44.878906 24.800781 45.117188 23.636719 Z M 45.117188 23.636719 "/>
<path style=" stroke:none;fill-rule:evenodd;fill:rgb(94.509804%,94.509804%,94.509804%);fill-opacity:1;" d="M 49.6875 23.636719 C 50.957031 23.304688 51.597656 23.792969 51.613281 25.089844 C 51.460938 26.214844 50.820312 26.699219 49.6875 26.546875 C 49.6875 25.574219 49.6875 24.605469 49.6875 23.636719 Z M 49.6875 23.636719 "/>
<path style=" stroke:none;fill-rule:evenodd;fill:rgb(53.333336%,52.549022%,52.549022%);fill-opacity:1;" d="M 58.109375 23.636719 C 58.347656 24.800781 58.429688 26.011719 58.351562 27.273438 C 58.59375 27.273438 58.832031 27.273438 59.074219 27.273438 C 58.996094 26.011719 59.078125 24.800781 59.3125 23.636719 C 59.3125 24.929688 59.3125 26.222656 59.3125 27.515625 C 58.914062 27.515625 58.511719 27.515625 58.109375 27.515625 C 58.109375 26.222656 58.109375 24.929688 58.109375 23.636719 Z M 58.109375 23.636719 "/>
<path style=" stroke:none;fill-rule:evenodd;fill:rgb(16.078432%,14.509805%,14.901961%);fill-opacity:1;" d="M 19.609375 23.878906 C 19.910156 23.898438 20.113281 24.058594 20.210938 24.363281 C 20.585938 23.875 21.027344 23.792969 21.535156 24.121094 C 21.039062 24.273438 20.597656 24.515625 20.210938 24.847656 C 20.171875 25.667969 20.050781 26.476562 19.851562 27.273438 C 19.613281 26.152344 19.53125 25.023438 19.609375 23.878906 Z M 19.609375 23.878906 "/>
<path style=" stroke:none;fill-rule:evenodd;fill:rgb(82.352942%,81.960785%,81.960785%);fill-opacity:1;" d="M 54.984375 23.636719 C 55.265625 24.15625 55.503906 24.722656 55.703125 25.332031 C 55.332031 25.5625 54.933594 25.644531 54.5 25.574219 C 54.585938 24.90625 54.75 24.257812 54.984375 23.636719 Z M 54.984375 23.636719 "/>
<path style=" stroke:none;fill-rule:evenodd;fill:rgb(80.392158%,80.000001%,80.000001%);fill-opacity:1;" d="M 62.203125 23.636719 C 62.71875 24.148438 62.960938 24.796875 62.921875 25.574219 C 62.492188 25.644531 62.09375 25.5625 61.71875 25.332031 C 61.980469 24.792969 62.140625 24.226562 62.203125 23.636719 Z M 62.203125 23.636719 "/>
<path style=" stroke:none;fill-rule:evenodd;fill:rgb(19.215687%,17.647059%,18.039216%);fill-opacity:1;" d="M 26.828125 23.878906 C 29.15625 23.914062 29.796875 25.003906 28.753906 27.152344 C 26.523438 27.8125 25.683594 26.964844 26.226562 24.605469 C 26.480469 24.394531 26.679688 24.152344 26.828125 23.878906 Z M 26.828125 23.878906 "/>
<path style=" stroke:none;fill-rule:evenodd;fill:rgb(94.901961%,94.901961%,94.901961%);fill-opacity:1;" d="M 27.070312 24.363281 C 27.542969 24.304688 27.984375 24.386719 28.394531 24.605469 C 28.636719 25.453125 28.515625 26.21875 28.03125 26.910156 C 27.378906 27.160156 26.9375 26.957031 26.710938 26.304688 C 26.496094 25.578125 26.617188 24.929688 27.070312 24.363281 Z M 27.070312 24.363281 "/>
<path style=" stroke:none;fill-rule:evenodd;fill:rgb(23.921569%,22.745098%,23.137255%);fill-opacity:1;" d="M 16.242188 23.878906 C 17.882812 23.511719 18.605469 24.160156 18.40625 25.816406 C 18.328125 26.304688 18.246094 26.789062 18.167969 27.273438 C 17.507812 27.507812 16.785156 27.507812 16 27.273438 C 15.332031 26.582031 15.410156 25.976562 16.242188 25.453125 C 16.796875 25.335938 17.359375 25.292969 17.925781 25.332031 C 17.96875 25.011719 17.886719 24.730469 17.6875 24.484375 C 17.1875 24.316406 16.707031 24.359375 16.242188 24.605469 C 15.988281 24.382812 15.988281 24.140625 16.242188 23.878906 Z M 16.242188 23.878906 "/>
<path style=" stroke:none;fill-rule:evenodd;fill:rgb(94.901961%,94.901961%,94.901961%);fill-opacity:1;" d="M 16.484375 25.816406 C 16.882812 25.816406 17.285156 25.816406 17.6875 25.816406 C 17.804688 26.949219 17.363281 27.269531 16.363281 26.789062 C 16.222656 26.441406 16.261719 26.117188 16.484375 25.816406 Z M 16.484375 25.816406 "/>
</g>
</svg>
