<?xml version="1.0" encoding="UTF-8"?>
<!DOCTYPE svg PUBLIC "-//W3C//DTD SVG 1.1//EN" "http://www.w3.org/Graphics/SVG/1.1/DTD/svg11.dtd">
<svg xmlns="http://www.w3.org/2000/svg" version="1.1" width="320px" height="132px" style="shape-rendering:geometricPrecision; text-rendering:geometricPrecision; image-rendering:optimizeQuality; fill-rule:evenodd; clip-rule:evenodd" xmlns:xlink="http://www.w3.org/1999/xlink">
<g><path style="opacity:1" fill="#fdfdfc" d="M -0.5,-0.5 C 106.167,-0.5 212.833,-0.5 319.5,-0.5C 319.5,43.5 319.5,87.5 319.5,131.5C 212.833,131.5 106.167,131.5 -0.5,131.5C -0.5,87.5 -0.5,43.5 -0.5,-0.5 Z"/></g>
<g><path style="opacity:1" fill="#090b0c" d="M 30.5,18.5 C 43.7757,17.0466 52.9423,22.3799 58,34.5C 58.4999,47.8292 58.6666,61.1625 58.5,74.5C 55.5,74.5 52.5,74.5 49.5,74.5C 49.6665,62.8286 49.4999,51.1619 49,39.5C 44.9841,28.8263 37.8174,25.993 27.5,31C 25.8767,33.0795 24.3767,35.2462 23,37.5C 22.5001,49.8288 22.3335,62.1622 22.5,74.5C 19.1667,74.5 15.8333,74.5 12.5,74.5C 12.3334,61.4957 12.5001,48.4957 13,35.5C 16.1095,26.8886 21.9428,21.2219 30.5,18.5 Z"/></g>
<g><path style="opacity:1" fill="#080b0c" d="M 70.5,18.5 C 73.4475,18.2229 76.2809,18.5562 79,19.5C 79.4999,37.8303 79.6666,56.1636 79.5,74.5C 76.1667,74.5 72.8333,74.5 69.5,74.5C 69.1802,55.757 69.5135,37.0903 70.5,18.5 Z"/></g>
<g><path style="opacity:1" fill="#0d0f0f" d="M 89.5,18.5 C 93.1064,18.2108 96.6064,18.5442 100,19.5C 104.895,32.9531 110.061,46.2864 115.5,59.5C 120.762,46.2156 125.929,32.8822 131,19.5C 134.394,18.5442 137.894,18.2108 141.5,18.5C 135.502,36.3235 129.002,53.9902 122,71.5C 116.471,76.0438 111.804,75.3771 108,69.5C 101.527,52.5793 95.3606,35.5793 89.5,18.5 Z"/></g>
<g><path style="opacity:1" fill="#0d0f10" d="M 167.5,18.5 C 181.557,17.1932 191.891,22.6932 198.5,35C 189.881,40.7753 180.881,45.942 171.5,50.5C 168.728,48.9562 167.561,46.6229 168,43.5C 173.418,40.207 178.918,37.0403 184.5,34C 185.711,33.1072 185.711,32.2739 184.5,31.5C 171.636,24.2866 161.802,27.2866 155,40.5C 152.832,57.0471 159.999,65.2137 176.5,65C 185.131,63.0357 190.464,57.7024 192.5,49C 199.426,47.586 201.593,50.086 199,56.5C 190.222,73.2045 177.055,78.0378 159.5,71C 145.307,61.1061 141.807,48.2727 149,32.5C 153.526,25.5054 159.693,20.8387 167.5,18.5 Z"/></g>
<g><path style="opacity:1" fill="#ec4d3d" d="M 210.5,18.5 C 216.908,18.8097 218.908,21.9764 216.5,28C 209.922,30.7568 207.089,28.5901 208,21.5C 209.045,20.6266 209.878,19.6266 210.5,18.5 Z"/></g>
<g><path style="opacity:1" fill="#ec4d3d" d="M 247.5,18.5 C 254.263,18.5472 256.263,21.7139 253.5,28C 246.922,30.7568 244.089,28.5901 245,21.5C 246.045,20.6266 246.878,19.6266 247.5,18.5 Z"/></g>
<g><path style="opacity:1" fill="#0e1010" d="M 272.5,18.5 C 282.749,18.1806 292.916,18.5139 303,19.5C 303.777,22.4294 303.61,25.2628 302.5,28C 292.833,28.3333 283.167,28.6667 273.5,29C 270.833,31.6667 270.833,34.3333 273.5,37C 281.081,39.8604 288.747,42.5271 296.5,45C 304.564,48.6286 307.731,54.7953 306,63.5C 304.298,69.8639 300.132,73.3639 293.5,74C 282.59,74.8196 271.757,74.6529 261,73.5C 260.223,70.5706 260.39,67.7372 261.5,65C 272.167,64.6667 282.833,64.3333 293.5,64C 295.68,61.5823 296.013,58.9156 294.5,56C 288.065,53.0564 281.399,50.723 274.5,49C 264.387,46.2426 259.887,39.7426 261,29.5C 263.412,24.2523 267.246,20.5857 272.5,18.5 Z"/></g>
<g><path style="opacity:1" fill="#f8b62d" d="M 207.5,39.5 C 210.777,39.2161 213.943,39.5495 217,40.5C 215.644,49.4269 218.144,56.9269 224.5,63C 232.255,66.259 238.422,64.4257 243,57.5C 244.124,51.8973 244.79,46.2306 245,40.5C 248.073,39.3832 251.24,39.2165 254.5,40C 256.428,48.5582 255.262,56.7249 251,64.5C 242.342,74.6061 231.842,77.1061 219.5,72C 208.425,63.9801 204.425,53.1468 207.5,39.5 Z"/></g>
<g><path style="opacity:1" fill="#3d393a" d="M 127.5,92.5 C 129.604,92.2011 131.604,92.5344 133.5,93.5C 130.215,93.6981 128.548,95.3648 128.5,98.5C 132.5,99.1667 132.5,99.8333 128.5,100.5C 128.5,104.833 128.5,109.167 128.5,113.5C 127.5,113.5 126.5,113.5 125.5,113.5C 126.026,108.588 125.359,103.922 123.5,99.5C 125.208,97.3672 126.542,95.0339 127.5,92.5 Z"/></g>
<g><path style="opacity:1" fill="#292526" d="M 50.5,93.5 C 54.8394,92.8461 58.6727,93.8461 62,96.5C 63.0368,103.605 59.8701,106.605 52.5,105.5C 52.8076,107.924 52.4742,110.257 51.5,112.5C 50.5037,106.202 50.1703,99.8682 50.5,93.5 Z"/></g>
<g><path style="opacity:1" fill="#2c2829" d="M 141.5,93.5 C 143.604,93.2011 145.604,93.5344 147.5,94.5C 150,98.8333 152.5,103.167 155,107.5C 155.499,102.845 155.666,98.1785 155.5,93.5C 156.5,93.5 157.5,93.5 158.5,93.5C 158.5,99.8333 158.5,106.167 158.5,112.5C 156.801,112.66 155.134,112.494 153.5,112C 151.124,108.081 148.624,104.248 146,100.5C 145.501,104.486 145.334,108.486 145.5,112.5C 144.167,112.5 142.833,112.5 141.5,112.5C 141.5,106.167 141.5,99.8333 141.5,93.5 Z"/></g>
<g><path style="opacity:1" fill="#2c2829" d="M 161.5,93.5 C 166.167,93.5 170.833,93.5 175.5,93.5C 175.5,94.8333 175.5,96.1667 175.5,97.5C 173.833,97.5 172.167,97.5 170.5,97.5C 170.5,102.5 170.5,107.5 170.5,112.5C 169.167,112.5 167.833,112.5 166.5,112.5C 166.5,107.5 166.5,102.5 166.5,97.5C 164.833,97.5 163.167,97.5 161.5,97.5C 161.5,96.1667 161.5,94.8333 161.5,93.5 Z"/></g>
<g><path style="opacity:1" fill="#262223" d="M 192.5,94.5 C 192.5,95.5 192.5,96.5 192.5,97.5C 190.833,97.5 189.167,97.5 187.5,97.5C 186.513,102.305 186.179,107.305 186.5,112.5C 185.5,112.5 184.5,112.5 183.5,112.5C 183.5,107.5 183.5,102.5 183.5,97.5C 181.958,96.8365 180.291,96.1698 178.5,95.5C 183.12,94.5067 187.786,94.1734 192.5,94.5 Z"/></g>
<g><path style="opacity:1" fill="#2a2627" d="M 202.5,93.5 C 216.836,92.3072 221.17,98.1406 215.5,111C 211.3,112.367 206.967,112.867 202.5,112.5C 202.5,106.167 202.5,99.8333 202.5,93.5 Z"/></g>
<g><path style="opacity:1" fill="#2b2728" d="M 226.5,93.5 C 228.288,93.2148 229.955,93.5481 231.5,94.5C 234.08,100.323 236.08,106.323 237.5,112.5C 235.042,112.773 233.375,111.773 232.5,109.5C 229.914,108.52 227.247,108.187 224.5,108.5C 224.5,109.833 224.5,111.167 224.5,112.5C 223.167,112.5 221.833,112.5 220.5,112.5C 221.7,105.902 223.7,99.5686 226.5,93.5 Z"/></g>
<g><path style="opacity:1" fill="#2e2a2b" d="M 246.5,97.5 C 245.513,102.305 245.179,107.305 245.5,112.5C 244.5,112.5 243.5,112.5 242.5,112.5C 242.821,107.305 242.487,102.305 241.5,97.5C 239.833,97.5 238.167,97.5 236.5,97.5C 236.5,96.1667 236.5,94.8333 236.5,93.5C 241.5,93.5 246.5,93.5 251.5,93.5C 251.5,94.8333 251.5,96.1667 251.5,97.5C 249.833,97.5 248.167,97.5 246.5,97.5 Z"/></g>
<g><path style="opacity:1" fill="#2b2728" d="M 256.5,93.5 C 258.467,93.2606 260.301,93.5939 262,94.5C 264.546,100.303 266.379,106.303 267.5,112.5C 266.167,112.5 264.833,112.5 263.5,112.5C 263.5,111.167 263.5,109.833 263.5,108.5C 260.753,108.187 258.086,108.52 255.5,109.5C 254.625,111.773 252.958,112.773 250.5,112.5C 252.1,106.034 254.1,99.7007 256.5,93.5 Z"/></g>
<g><path style="opacity:1" fill="#2e2a2b" d="M 92.5,95.5 C 94.0481,95.8212 94.7148,96.8212 94.5,98.5C 99.8333,99.1667 99.8333,99.8333 94.5,100.5C 94.335,103.85 94.5017,107.183 95,110.5C 96.2051,111.071 97.3717,111.738 98.5,112.5C 96.3886,113.848 94.5553,113.515 93,111.5C 93.0032,107.258 92.1699,103.258 90.5,99.5C 91.8532,98.4763 92.5198,97.143 92.5,95.5 Z"/></g>
<g><path style="opacity:1" fill="#e1e1e1" d="M 52.5,95.5 C 56.3672,94.7747 59.0339,96.1081 60.5,99.5C 60.4712,101.029 59.8045,102.196 58.5,103C 56.5273,103.495 54.5273,103.662 52.5,103.5C 52.5,100.833 52.5,98.1667 52.5,95.5 Z"/></g>
<g><path style="opacity:1" fill="#5f5c5d" d="M 192.5,94.5 C 187.786,94.1734 183.12,94.5067 178.5,95.5C 180.291,96.1698 181.958,96.8365 183.5,97.5C 181.5,97.5 179.5,97.5 177.5,97.5C 177.5,96.1667 177.5,94.8333 177.5,93.5C 182.695,93.1795 187.695,93.5128 192.5,94.5 Z"/></g>
<g><path style="opacity:1" fill="#656263" d="M 187.5,97.5 C 187.5,102.833 187.5,108.167 187.5,113.5C 185.901,113.768 184.568,113.434 183.5,112.5C 184.5,112.5 185.5,112.5 186.5,112.5C 186.179,107.305 186.513,102.305 187.5,97.5 Z"/></g>
<g><path style="opacity:1" fill="#f1f1f1" d="M 206.5,97.5 C 211.768,96.1391 214.434,98.1391 214.5,103.5C 213.863,108.131 211.196,110.131 206.5,109.5C 206.5,105.5 206.5,101.5 206.5,97.5 Z"/></g>
<g><path style="opacity:1" fill="#888686" d="M 241.5,97.5 C 242.487,102.305 242.821,107.305 242.5,112.5C 243.5,112.5 244.5,112.5 245.5,112.5C 245.179,107.305 245.513,102.305 246.5,97.5C 246.5,102.833 246.5,108.167 246.5,113.5C 244.833,113.5 243.167,113.5 241.5,113.5C 241.5,108.167 241.5,102.833 241.5,97.5 Z"/></g>
<g><path style="opacity:1" fill="#292526" d="M 81.5,98.5 C 82.7498,98.5774 83.5831,99.244 84,100.5C 85.5553,98.4848 87.3886,98.1515 89.5,99.5C 87.4332,100.134 85.5998,101.134 84,102.5C 83.8236,105.882 83.3236,109.215 82.5,112.5C 81.5067,107.88 81.1734,103.214 81.5,98.5 Z"/></g>
<g><path style="opacity:1" fill="#d2d1d1" d="M 228.5,97.5 C 229.67,99.6502 230.67,101.984 231.5,104.5C 229.955,105.452 228.288,105.785 226.5,105.5C 226.858,102.733 227.525,100.067 228.5,97.5 Z"/></g>
<g><path style="opacity:1" fill="#cdcccc" d="M 258.5,97.5 C 260.655,99.6174 261.655,102.284 261.5,105.5C 259.712,105.785 258.045,105.452 256.5,104.5C 257.577,102.271 258.244,99.9372 258.5,97.5 Z"/></g>
<g><path style="opacity:1" fill="#312d2e" d="M 111.5,98.5 C 121.163,98.6456 123.83,103.146 119.5,112C 110.233,114.729 106.733,111.229 109,101.5C 110.045,100.627 110.878,99.6266 111.5,98.5 Z"/></g>
<g><path style="opacity:1" fill="#f2f2f2" d="M 112.5,100.5 C 114.467,100.261 116.301,100.594 118,101.5C 119.004,104.993 118.504,108.159 116.5,111C 113.783,112.033 111.949,111.2 111,108.5C 110.109,105.502 110.609,102.836 112.5,100.5 Z"/></g>
<g><path style="opacity:1" fill="#3d3a3b" d="M 67.5,98.5 C 74.3233,96.9933 77.3233,99.6599 76.5,106.5C 76.1667,108.5 75.8333,110.5 75.5,112.5C 72.7644,113.465 69.7644,113.465 66.5,112.5C 63.7167,109.658 64.0501,107.158 67.5,105C 69.8098,104.503 72.1432,104.337 74.5,104.5C 74.67,103.178 74.3366,102.011 73.5,101C 71.4325,100.313 69.4325,100.48 67.5,101.5C 66.4376,100.575 66.4376,99.5754 67.5,98.5 Z"/></g>
<g><path style="opacity:1" fill="#f2f2f2" d="M 68.5,106.5 C 70.1667,106.5 71.8333,106.5 73.5,106.5C 73.9854,111.159 72.152,112.492 68,110.5C 67.4209,109.072 67.5876,107.738 68.5,106.5 Z"/></g>
</svg>
